<svg width="16" height="16" viewBox="0 0 16 16" fill="none" xmlns="http://www.w3.org/2000/svg">
<rect width="16" height="16" fill="white"/>
<path d="M5 8V4C5 2.34315 6.34315 1 8 1V1C9.65685 1 11 2.34315 11 4V8" stroke="#C4C4C5"/>
<mask id="path-2-inside-1_564_9419" fill="white">
<path fill-rule="evenodd" clip-rule="evenodd" d="M3 6C2.44772 6 2 6.44772 2 7V15C2 15.5523 2.44772 16 3 16H13C13.5523 16 14 15.5523 14 15V7C14 6.44772 13.5523 6 13 6H3ZM8 13C9.10457 13 10 12.1046 10 11C10 9.89543 9.10457 9 8 9C6.89543 9 6 9.89543 6 11C6 12.1046 6.89543 13 8 13Z"/>
</mask>
<path fill-rule="evenodd" clip-rule="evenodd" d="M3 6C2.44772 6 2 6.44772 2 7V15C2 15.5523 2.44772 16 3 16H13C13.5523 16 14 15.5523 14 15V7C14 6.44772 13.5523 6 13 6H3ZM8 13C9.10457 13 10 12.1046 10 11C10 9.89543 9.10457 9 8 9C6.89543 9 6 9.89543 6 11C6 12.1046 6.89543 13 8 13Z" fill="#C4C4C5"/>
<path d="M3 7V7V5C1.89543 5 1 5.89543 1 7H3ZM3 15V7H1V15H3ZM3 15H3H1C1 16.1046 1.89543 17 3 17V15ZM13 15H3V17H13V15ZM13 15V17C14.1046 17 15 16.1046 15 15H13ZM13 7V15H15V7H13ZM13 7H15C15 5.89543 14.1046 5 13 5V7ZM3 7H13V5H3V7ZM9 11C9 11.5523 8.55228 12 8 12V14C9.65685 14 11 12.6569 11 11H9ZM8 10C8.55228 10 9 10.4477 9 11H11C11 9.34315 9.65685 8 8 8V10ZM7 11C7 10.4477 7.44772 10 8 10V8C6.34315 8 5 9.34315 5 11H7ZM8 12C7.44772 12 7 11.5523 7 11H5C5 12.6569 6.34315 14 8 14V12Z" fill="#C4C4C5" mask="url(#path-2-inside-1_564_9419)"/>
</svg>
