<svg id="Шар_1" data-name="Шар 1" xmlns="http://www.w3.org/2000/svg" width="18" height="12" viewBox="0 0 18 12"><defs><style>.cls-1{fill:#3a3a3b;}</style></defs><path class="cls-1" d="M16.21,2A8,8,0,0,1,9,6.39,8,8,0,0,1,1.79,2H0A9.67,9.67,0,0,0,9,8a9.66,9.66,0,0,0,9-6Z"/><rect class="cls-1" x="0.64" y="5.43" width="0.93" height="2.9" rx="0.46" transform="translate(4.64 0.88) rotate(39.6)"/><rect class="cls-1" x="4.19" y="8.14" width="0.93" height="2.9" rx="0.46" transform="translate(4.57 -1.07) rotate(25.46)"/><rect class="cls-1" x="16.44" y="5.43" width="0.93" height="2.9" rx="0.46" transform="translate(34.31 1.41) rotate(140.4)"/><rect class="cls-1" x="12.88" y="8.14" width="0.93" height="2.9" rx="0.46" transform="translate(29.52 12.51) rotate(154.54)"/><rect class="cls-1" x="8.54" y="8.88" width="0.93" height="2.9" rx="0.46"/></svg>